# xmcd
#
# Track frame offsets:
#	150
#	13567
#	23512
#	33650
#	46792
#	57694
#	69714
#	79913
#	90456
#	101302
#	113786
#	123868
#	134394
#	146787
#	156377
#	165451
#	176037
#	186943
#	199622
#	209931
#
# Disc length: 2939 seconds
#
# Revision: 1
# Processed by: cddbd v1.5.2PL0 Copyright (c) Steve Scherf et al.
# Submitted via: EasyCDDAExtractor 2010.4.0.0
#
DISCID=1d0b7914
DTITLE=Johnnie Ray - Cry
DYEAR=1900
DGENRE=Ballad
TTITLE0=Cry
TTITLE1=The Little White Cloud That Cried
TTITLE2=Such A Night
TTITLE3=Please Mr. Sun
TTITLE4=Hernando's Hideaway 
TTITLE5=Just Walking In The Rain
TTITLE6=Flip, Flop and Fly
TTITLE7=I've Got So Many Million Years
TTITLE8=Johnnie's Comin' Home
TTITLE9=Look Homeward Angel
TTITLE10=Up Above My Head
TTITLE11=Good Evening Friends
TTITLE12=(Here Am  I) Broken Hearted
TTITLE13=All Of Me
TTITLE14=Pathes Of Paradise
TTITLE15=Papa Loves Mambo
TTITLE16=You Don't Owe Me A Thing
TTITLE17=Hey There
TTITLE18=Walkin' My Baby Back Home
TTITLE19=Alexander's Ragtime Band
EXTD=
EXTT0=
EXTT1=
EXTT2=
EXTT3=
EXTT4=
EXTT5=
EXTT6=
EXTT7=
EXTT8=
EXTT9=
EXTT10=
EXTT11=
EXTT12=
EXTT13=
EXTT14=
EXTT15=
EXTT16=
EXTT17=
EXTT18=
EXTT19=
PLAYORDER=
